<svg width="39" height="40" viewBox="0 0 39 40" fill="none" xmlns="http://www.w3.org/2000/svg">
<path d="M29.5908 18.9071C29.5908 13.6571 25.095 9.37354 19.585 9.37354C14.075 9.37354 9.57921 13.6571 9.57921 18.9071C9.57921 19.6635 9.66702 20.4198 9.88743 21.1744C10.1526 22.3918 10.6364 23.1481 11.2976 24.1981C11.4302 24.4508 11.6059 24.7018 11.7832 24.9954C12.0036 25.3318 12.1793 25.6681 12.3996 25.9618C13.2813 27.3481 13.8099 28.1454 13.8099 29.7844V33.7318C13.8099 34.7391 14.5589 35.5381 15.5731 35.7054C16.0139 37.8481 17.3363 39.1918 19.5851 39.1918C21.8339 39.1918 23.1993 37.8481 23.5971 35.7054C24.6113 35.5381 25.3603 34.6981 25.3603 33.7318V29.7844C25.3603 28.1471 25.8889 27.3071 26.7705 25.9618C26.9462 25.6681 27.1666 25.3318 27.3869 24.9954C27.5626 24.7018 27.7399 24.4491 27.8725 24.1981C28.5337 23.1481 29.0193 22.3918 29.2827 21.1744C29.5031 20.4197 29.591 19.6634 29.591 18.9071H29.5908ZM23.6399 30.7935H15.6178V29.8272C15.6178 29.6172 15.6178 29.4499 15.573 29.2809H23.6401C23.6401 29.4482 23.5954 29.6172 23.5954 29.8272L23.5971 30.7935H23.6399ZM23.2439 34.1125H15.9257C15.7053 34.1125 15.5727 33.9452 15.5727 33.7762V32.4735H23.5949V33.7762C23.6396 33.9435 23.464 34.1125 23.2436 34.1125H23.2439ZM19.5849 37.5562C19.0993 37.5562 17.8665 37.5562 17.3809 35.7925H21.8339C21.3483 37.5562 20.0706 37.5562 19.5851 37.5562H19.5849ZM27.5643 20.8397C27.3439 21.7634 26.9909 22.3934 26.3745 23.3597C26.1988 23.6124 26.0663 23.8634 25.8889 24.1571C25.6685 24.4934 25.4929 24.8297 25.3155 25.0807C24.7869 25.9207 24.3013 26.6771 23.9931 27.5581H15.2648C14.9565 26.6754 14.5157 25.9207 13.9423 25.0807C13.7667 24.7871 13.5463 24.4934 13.3689 24.1571C13.1933 23.8634 13.016 23.5697 12.8834 23.3597C12.2669 22.3524 11.9139 21.7634 11.6935 20.7971C11.5179 20.1671 11.4284 19.5371 11.4284 18.9071C11.4284 14.5807 15.1304 11.0535 19.6709 11.0535C24.2117 11.0535 27.9135 14.5808 27.9135 18.9071C27.8274 19.5371 27.7396 20.1671 27.564 20.8397H27.5643Z" fill="#00FF84"/>
<path d="M37.7456 18.0671H34.0866C33.601 18.0671 33.205 18.4445 33.205 18.9071C33.205 19.3698 33.601 19.7471 34.0866 19.7471H37.7456C38.2312 19.7471 38.6272 19.3698 38.6272 18.9071C38.6272 18.4461 38.2312 18.0671 37.7456 18.0671Z" fill="#00FF84"/>
<path d="M29.8112 10.0035C30.0316 10.0035 30.252 9.91986 30.4276 9.75088L33.0276 7.27355C33.3806 6.93722 33.3806 6.43355 33.0276 6.09722C32.6746 5.76089 32.146 5.76089 31.793 6.09722L29.193 8.57455C28.84 8.91087 28.84 9.41455 29.193 9.75088C29.3703 9.91986 29.5907 10.0035 29.8111 10.0035H29.8112Z" fill="#00FF84"/>
<path d="M19.585 5.93001C20.0706 5.93001 20.4666 5.55266 20.4666 5.09001V1.60367C20.4666 1.141 20.0706 0.763672 19.585 0.763672C19.0994 0.763672 18.7034 1.14102 18.7034 1.60367V5.09001C18.7034 5.55268 19.0994 5.93001 19.585 5.93001Z" fill="#00FF84"/>
<path d="M8.74037 9.75283C8.916 9.92018 9.1364 10.0055 9.35679 10.0055C9.57717 10.0055 9.79759 9.92182 9.9732 9.75283C10.3262 9.41651 10.3262 8.91283 9.9732 8.5765L7.37317 6.09917C7.02019 5.76284 6.49157 5.76284 6.13857 6.09917C5.78559 6.4355 5.78559 6.93917 6.13857 7.27551L8.74037 9.75283Z" fill="#00FF84"/>
<path d="M5.12622 18.0671H1.46721C0.981619 18.0671 0.585602 18.4445 0.585602 18.9071C0.585602 19.3698 0.981637 19.7471 1.46721 19.7471H5.12622C5.61181 19.7471 6.00783 19.3698 6.00783 18.9071C6.00783 18.4461 5.61179 18.0671 5.12622 18.0671Z" fill="#00FF84"/>
<path d="M8.74037 28.0635L6.14033 30.5409C5.78735 30.8772 5.78735 31.3809 6.14033 31.7172C6.31597 31.8845 6.53637 31.9698 6.75675 31.9698C6.97714 31.9698 7.19756 31.8862 7.37317 31.7172L9.9732 29.2399C10.3262 28.9035 10.3262 28.3999 9.9732 28.0635C9.62194 27.7272 9.05025 27.7272 8.74032 28.0635H8.74037Z" fill="#00FF84"/>
<path d="M30.4296 28.0635C30.0766 27.7272 29.548 27.7272 29.195 28.0635C28.842 28.3999 28.842 28.9035 29.195 29.2399L31.7951 31.7172C31.9707 31.8845 32.1911 31.9698 32.4115 31.9698C32.6319 31.9698 32.8523 31.8862 33.0279 31.7172C33.3809 31.3809 33.3809 30.8772 33.0279 30.5409L30.4296 28.0635Z" fill="#00FF84"/>
</svg>
