<svg width="33" height="32" viewBox="0 0 33 32" fill="none" xmlns="http://www.w3.org/2000/svg">
<path d="M32.0816 19.1279H29.9284V2.72792C29.9219 1.66228 29.015 0.801365 27.8966 0.799805H5.55464C4.4313 0.801367 3.52283 1.67012 3.52283 2.74044V19.1404H1.36965C0.905551 19.1404 0.530029 19.4983 0.530029 19.9404V29.2592C0.530029 30.3296 1.43854 31.1983 2.56184 31.1999H30.8895C32.0128 31.1983 32.9213 30.3296 32.9213 29.2592V19.928C32.9213 19.7155 32.8344 19.5124 32.677 19.3624C32.5195 19.2124 32.3047 19.128 32.0817 19.128L32.0816 19.1279ZM5.21362 2.72792C5.21362 2.54199 5.37105 2.39042 5.56784 2.3873H27.8968C28.092 2.39043 28.2494 2.54199 28.2494 2.72792V19.1279H25.7305C25.3156 19.1232 24.9581 19.4092 24.8909 19.7998L24.4334 22.492H9.02669L8.56918 19.7998C8.50194 19.4092 8.14609 19.1232 7.72955 19.1279H5.21068L5.21362 2.72792ZM31.242 29.2483C31.242 29.4343 31.0862 29.5858 30.8894 29.5874H2.56174C2.36495 29.5858 2.20916 29.4343 2.20916 29.2483V20.7279H7.02399L7.48973 23.4201C7.55696 23.8107 7.91281 24.0967 8.32935 24.092H25.1647C25.5796 24.0967 25.937 23.8108 26.0043 23.4201L26.4618 20.7279H31.2422L31.242 29.2483Z" fill="#00FF84"/>
<path d="M18.884 25.8591H14.5679C14.1038 25.8591 13.7283 26.2185 13.7283 26.6591C13.7283 27.1013 14.1038 27.4591 14.5679 27.4591H18.884C19.3481 27.4591 19.7236 27.1013 19.7236 26.6591C19.7236 26.2185 19.3481 25.8591 18.884 25.8591Z" fill="#00FF84"/>
<path d="M13.7413 11.0919L15.8863 8.65912V18.4311C15.8863 18.8733 16.2618 19.2311 16.7259 19.2311C17.19 19.2311 17.5655 18.8733 17.5655 18.4311V8.65912L19.7105 11.0904V11.0919C19.8712 11.2716 20.1057 11.3763 20.3533 11.3763C20.5485 11.3779 20.7387 11.3154 20.8912 11.1997C21.2438 10.9169 21.2913 10.4138 20.9961 10.0763L17.3687 5.94829C17.2031 5.77642 16.9702 5.67798 16.7259 5.67798C16.4816 5.67798 16.2487 5.77642 16.0831 5.94829L12.4557 10.0639C12.1834 10.403 12.2392 10.8873 12.5819 11.1639C12.9263 11.4389 13.438 11.4076 13.7413 11.092L13.7413 11.0919Z" fill="#00FF84"/>
</svg>
