<svg width="34" height="32" viewBox="0 0 34 32" fill="none" xmlns="http://www.w3.org/2000/svg">
<path d="M32.9111 6.10325L27.2206 0.681248C27.1041 0.568748 26.9483 0.507812 26.7827 0.507812C26.6187 0.507812 26.4613 0.568748 26.3448 0.681248L17.2647 9.33125L18.142 10.1656L26.7826 1.93281L31.5958 6.52041L30.0904 7.95477L27.3632 5.35477C27.1205 5.12508 26.7302 5.12508 26.4875 5.35477C26.2448 5.58758 26.2448 5.95945 26.4875 6.18913L29.2147 8.78913L27.4895 10.4329L25.7676 8.79225C25.5249 8.55944 25.1346 8.55944 24.8919 8.79225C24.6492 9.02194 24.6492 9.39537 24.8919 9.62661L26.6138 11.2672L24.8886 12.911L22.1598 10.311C21.9171 10.0798 21.5269 10.0798 21.2842 10.311C21.0415 10.5423 21.0415 10.9141 21.2842 11.1454L24.0129 13.7454L22.9601 14.7485L23.8358 15.5829L32.9159 6.93285C33.1521 6.70785 33.1521 6.33441 32.911 6.10317L32.9111 6.10325Z" fill="#00FF84"/>
<path d="M14.4738 22.8344L11.7467 20.236C11.504 20.0047 11.1137 20.0047 10.871 20.236C10.6283 20.4672 10.6283 20.8391 10.871 21.0703L13.5981 23.6688L11.8729 25.3141L10.151 23.6734C9.90833 23.4422 9.5164 23.4422 9.27371 23.6734C9.031 23.9047 9.031 24.2766 9.27371 24.5078L10.9956 26.1484L9.27043 27.7906L6.54329 25.1938C6.30059 24.9609 5.90866 24.9609 5.66597 25.1938C5.42326 25.4234 5.42326 25.7969 5.66597 26.0281L8.39311 28.6266L6.88771 30.0625L2.07456 25.4733L10.7135 17.2421L9.83777 16.4077L0.759331 25.0561C0.516625 25.2874 0.516625 25.6592 0.759331 25.8905L6.44988 31.3141C6.56631 31.4235 6.72211 31.4875 6.88775 31.4875C7.05173 31.4875 7.20916 31.4234 7.32561 31.3141L16.404 22.6641L15.5267 21.8297L14.4738 22.8344Z" fill="#00FF84"/>
<path d="M30.1366 23.2657L9.6086 3.70649L8.23766 2.39712C7.26684 1.469 5.60565 1.41276 4.70696 2.27212L2.42586 4.44712C1.49111 5.33776 1.55182 6.84713 2.5587 7.80805L24.4595 28.6769C24.7448 28.9456 25.2204 29.3925 30.4468 30.5206C30.555 30.5425 30.6633 30.555 30.7715 30.555C31.1356 30.555 31.475 30.4237 31.7259 30.1831C32.0473 29.8737 32.1769 29.4222 32.0736 28.9738C30.8896 23.9846 30.4173 23.5345 30.1368 23.2657L30.1366 23.2657ZM3.43568 6.97209C2.90928 6.47209 2.84861 5.71273 3.30121 5.27988L5.58066 3.108C5.77581 2.9205 6.04968 2.81738 6.34812 2.81738C6.71218 2.81738 7.08116 2.96894 7.35827 3.23302L8.29303 4.12366L4.36875 7.86274L3.43568 6.97209ZM24.3016 25.3253C24.0851 25.2612 23.849 25.3159 23.6883 25.4659C23.5276 25.6175 23.4636 25.8393 23.5243 26.0472L23.5522 26.1425L5.24628 8.69726L9.1722 4.95818L27.3601 22.291C27.1469 22.2379 26.9223 22.291 26.7665 22.4363C26.6058 22.5879 26.5435 22.8097 26.6041 23.0144L26.9272 24.1238L25.8416 23.8082C25.6251 23.7441 25.389 23.8003 25.2283 23.9519C25.0659 24.1003 25.0036 24.3253 25.0643 24.5331L25.3874 25.6394L24.3016 25.3253ZM25.3347 27.8409L25.0231 26.769L26.1022 27.0847C26.3219 27.1456 26.5646 27.0878 26.7253 26.9331C26.8828 26.7815 26.9451 26.5612 26.8828 26.3565L26.5614 25.2534L27.6437 25.5675C27.8585 25.6316 28.0946 25.5753 28.257 25.4237C28.4177 25.2753 28.4816 25.0519 28.421 24.8456L28.0946 23.7253L29.1802 24.0284L29.2622 24.105C29.3508 24.1894 29.5082 24.4519 29.7509 25.1519L26.4416 28.3081C25.7004 28.0722 25.4265 27.9253 25.3347 27.8409L25.3347 27.8409ZM30.8464 29.3534C30.8317 29.3659 30.8054 29.3753 30.7743 29.3753L30.7251 29.3675C29.4853 29.1018 28.5342 28.8753 27.7913 28.6847L30.1495 26.4378C30.3495 27.144 30.5857 28.0503 30.8677 29.23C30.8759 29.2831 30.8677 29.3316 30.8464 29.3534L30.8464 29.3534Z" fill="#00FF84"/>
</svg>
