<svg width="13" height="13" viewBox="0 0 13 13" fill="none" xmlns="http://www.w3.org/2000/svg">
<path d="M10.6679 10.4484H8.89125V7.66375C8.89125 6.99975 8.87791 6.14508 7.96458 6.14508C7.03858 6.14508 6.89725 6.86775 6.89725 7.61508V10.4484H5.11991V4.72241H6.82658V5.50241H6.84991C7.08858 5.05308 7.66858 4.57775 8.53525 4.57775C10.3352 4.57775 10.6686 5.76308 10.6686 7.30508V10.4484H10.6679ZM3.11325 3.93908C2.97762 3.93925 2.84329 3.91266 2.71796 3.86082C2.59263 3.80897 2.47876 3.73291 2.38288 3.63697C2.28701 3.54103 2.21102 3.42712 2.15925 3.30175C2.10749 3.17639 2.08098 3.04204 2.08125 2.90641C2.08138 2.7023 2.14203 2.50281 2.25554 2.33318C2.36905 2.16354 2.53031 2.03137 2.71893 1.95338C2.90756 1.87539 3.11507 1.85509 3.31523 1.89504C3.5154 1.93499 3.69922 2.0334 3.84345 2.17782C3.98769 2.32224 4.08586 2.50619 4.12555 2.7064C4.16524 2.90661 4.14467 3.1141 4.06644 3.30262C3.9882 3.49115 3.85583 3.65224 3.68604 3.76553C3.51626 3.87881 3.31669 3.93921 3.11258 3.93908H3.11325ZM4.00391 10.4484H2.22191V4.72241H4.00458V10.4484H4.00391ZM11.5579 0.222412H1.33058C0.839913 0.222412 0.44458 0.609079 0.44458 1.08708V11.3577C0.44458 11.8357 0.84058 12.2224 1.32991 12.2224H11.5552C12.0446 12.2224 12.4446 11.8357 12.4446 11.3577V1.08708C12.4446 0.609079 12.0446 0.222412 11.5552 0.222412H11.5572H11.5579Z" fill="#00FF84"/>
</svg>
