<svg width="20" height="20" viewBox="0 0 20 20" fill="none" xmlns="http://www.w3.org/2000/svg">
<path fill-rule="evenodd" clip-rule="evenodd" d="M17.9375 8.02313V15.0782C17.9375 16.528 16.7623 17.7032 15.3125 17.7032H4.81253C3.36278 17.7032 2.18753 16.528 2.18753 15.0782V8.02313C2.18753 7.65694 2.36711 7.31403 2.66823 7.10448L4.58527 5.77036C4.75526 5.65206 4.98897 5.69396 5.10728 5.86395C5.22558 6.03395 5.18368 6.26766 5.01368 6.38596L3.09664 7.72008C2.99838 7.78846 2.93945 7.89905 2.93758 8.0173C3.05486 7.97586 3.18106 7.9533 3.31253 7.9533C3.51315 7.9533 3.71013 8.00695 3.88304 8.1087L10.0625 11.7447L16.242 8.1087C16.5398 7.93346 16.8853 7.91095 17.1875 8.0176C17.1857 7.89924 17.1268 7.78852 17.0284 7.72008L15.1663 6.42415C14.9963 6.30585 14.9544 6.07214 15.0727 5.90215C15.191 5.73215 15.4247 5.69025 15.5947 5.80855L17.4568 7.10448C17.7579 7.31403 17.9375 7.65694 17.9375 8.02313Z" fill="#01FF85"/>
<path fill-rule="evenodd" clip-rule="evenodd" d="M4.53128 7.8125V4.0625C4.53128 3.02697 5.37075 2.1875 6.40628 2.1875H13.9063C14.9418 2.1875 15.7813 3.02697 15.7813 4.0625V7.8125L10.1563 11.1875L4.53128 7.8125ZM7.90628 5.93753H12.4063C12.6134 5.93753 12.7813 5.76964 12.7813 5.56253C12.7813 5.35542 12.6134 5.18753 12.4063 5.18753H7.90628C7.69917 5.18753 7.53128 5.35542 7.53128 5.56253C7.53128 5.76964 7.69917 5.93753 7.90628 5.93753ZM12.7813 7.81267C12.7813 8.01977 12.6134 8.18767 12.4063 8.18767H7.90628C7.69917 8.18767 7.53128 8.01977 7.53128 7.81267C7.53128 7.60556 7.69917 7.43767 7.90628 7.43767H12.4063C12.6134 7.43767 12.7813 7.60556 12.7813 7.81267Z" fill="#999999"/>
</svg>
