<svg width="17" height="18" viewBox="0 0 17 18" fill="none" xmlns="http://www.w3.org/2000/svg">
<path d="M6.31039 8.20893L9.27561 11.3563C9.59708 11.6976 10.1793 11.7463 10.828 11.4247C12.4787 10.7363 13.0279 10.5685 13.3415 10.9013L16.75 14.5193C17.1529 14.9469 17.0454 15.6593 16.5949 16.1375C14.2553 18.6208 10.4527 18.6208 8.11316 16.1375L1.74586 9.37902C-0.581954 6.90818 -0.581954 2.91081 1.74586 0.43997C2.20593 -0.0483612 2.91244 -0.168515 3.33054 0.275266L6.73907 3.89323C7.03451 4.20682 6.8761 4.7909 6.23107 6.53118C5.93122 7.21049 5.97926 7.85745 6.31039 8.20893Z" fill="#00FF84"/>
</svg>
