<svg width="127" height="115" viewBox="0 0 127 115" fill="none" xmlns="http://www.w3.org/2000/svg">
<path fill-rule="evenodd" clip-rule="evenodd" d="M64.0906 49.5472C62.0339 47.6125 60.0586 46.3942 58.4797 45.5542C43.3485 37.5811 30.0077 47.0833 21.1005 59.1044C18.7121 62.3239 16.1396 68.0671 16.1346 73.1061C16.1296 76.647 17.3635 79.8428 20.6369 81.721C24.1978 83.7817 28.8521 83.3688 33.5333 81.6704C40.3057 79.2194 47.1425 74.1075 50.5854 70.5851C54.5554 66.521 60.002 59.5921 64.4245 52.15C66.4786 54.4115 68.5535 57.4609 70.3131 61.6596C71.1019 63.5229 71.5122 65.8415 71.6102 68.343C67.829 68.8239 63.974 70.0739 60.2166 72.1553C57.0605 73.9094 51.1265 78.8349 47.9878 83.9662C45.7503 87.6309 44.96 91.4009 47.1246 94.3424C49.8181 97.9915 53.4287 98.3693 57.0349 97.0756C62.1136 95.2566 67.1668 89.9948 69.1996 86.5366C71.5625 82.5118 73.1542 75.8499 73.2002 69.7957C86.0623 68.8433 97.7425 77.1989 100.649 91.4597C100.74 91.8829 101.161 92.1612 101.589 92.0829C102.022 91.9908 102.303 91.5624 102.212 91.1391C99.1341 76.0511 86.7853 67.1868 73.1738 68.1787C73.0631 65.5165 72.6259 63.032 71.7847 61.0404C69.8433 56.4166 67.5362 53.1111 65.2652 50.7082C66.0699 49.3 66.8331 47.8766 67.5405 46.4486C70.7208 40.037 72.6938 33.6543 72.0432 28.7512C70.5412 17.4206 61.6626 11.1925 51.3987 9.50121C41.2322 7.82976 29.7415 10.6235 22.9207 17.177C22.603 17.4827 22.5913 17.9934 22.8976 18.3078C23.2041 18.6222 23.7089 18.6343 24.0265 18.3286C30.5171 12.0918 41.4682 9.47631 51.1384 11.0764C60.7113 12.6567 69.0589 18.3949 70.4625 28.9562C71.0741 33.6267 69.1321 39.6461 66.1102 45.7407C65.4809 47.0099 64.8053 48.2779 64.0906 49.5472ZM71.6352 69.9597C68.0998 70.4364 64.5008 71.6078 60.9878 73.5597C57.9834 75.2285 52.3422 79.9016 49.3475 84.8045C47.491 87.8431 46.6103 90.956 48.4109 93.3905C50.6021 96.3729 53.5609 96.6226 56.4988 95.5695C61.2286 93.8888 65.9287 88.9511 67.8248 85.7241C70.0468 81.9446 71.5722 75.6642 71.6352 69.9597ZM63.2715 50.9658C61.2438 49.0104 59.2873 47.7989 57.7348 46.9685C43.3893 39.4062 30.8267 48.661 22.3828 60.0548C20.1569 63.0526 17.7383 68.3993 17.7301 73.1094C17.7297 76.0588 18.6987 78.7681 21.4337 80.341C24.6239 82.1888 28.794 81.6934 32.9868 80.1762C39.5227 77.8108 46.1236 72.8627 49.4448 69.4676C53.415 65.4036 58.882 58.4354 63.2715 50.9658Z" fill="#00FF84"/>
<path fill-rule="evenodd" clip-rule="evenodd" d="M101.208 90.5985C100.594 90.0631 98.8225 88.5287 98.5484 88.3041C97.7768 87.6799 97.3017 87.4758 96.7956 87.3228C96.3873 87.2054 95.9479 87.1391 95.2133 86.8249C94.8099 86.6469 94.3381 86.8497 94.1669 87.2556C93.9958 87.6615 94.1901 88.1224 94.5935 88.3005C95.2629 88.5753 95.7093 88.6909 96.1019 88.787C96.5524 88.9042 96.8965 89.0138 97.5439 89.5459C97.8612 89.8019 99.4719 91.4182 100.351 92.0036C100.809 92.3107 101.212 92.3792 101.412 92.3429C101.699 92.2914 102.013 92.1245 102.306 91.7943C102.681 91.3689 103.095 90.5833 103.579 89.7136C104.031 88.8951 104.561 87.9799 105.238 87.2589C105.812 86.6562 106.49 86.2005 107.353 86.1712C107.792 86.1595 108.138 85.8015 108.127 85.3605C108.116 84.9195 107.749 84.5676 107.309 84.5792C106.011 84.6059 104.948 85.249 104.079 86.1657C103.31 86.9783 102.698 88.0041 102.183 88.9401C101.872 89.4981 101.598 90.0228 101.345 90.4144C101.305 90.4778 101.256 90.5381 101.208 90.5985Z" fill="#00FF84"/>
</svg>
