<svg width="23" height="26" viewBox="0 0 23 26" fill="none" xmlns="http://www.w3.org/2000/svg">
<path d="M12.0618 6.02657L12.8485 7.86657C12.9018 8.02657 13.0485 8.11991 13.1952 8.13324L15.1952 8.31991C15.6218 8.35991 15.7818 8.87991 15.4752 9.15991L13.9685 10.4799C13.8485 10.5866 13.7952 10.7466 13.8352 10.8932L14.2752 12.8532C14.3685 13.2666 13.9285 13.5866 13.5552 13.3732L11.8352 12.3466C11.7018 12.2666 11.5285 12.2666 11.3952 12.3466L9.67517 13.3732C9.31517 13.5866 8.86184 13.2666 8.95517 12.8532L9.39517 10.8932C9.43517 10.7466 9.38184 10.5866 9.26184 10.4799L7.75517 9.15991C7.43517 8.87991 7.6085 8.35991 8.03517 8.31991L10.0352 8.13324C10.1952 8.11991 10.3285 8.02657 10.3952 7.87991L11.1818 6.03991C11.3418 5.63991 11.8885 5.63991 12.0618 6.02657Z" stroke="#F44335" stroke-width="1.33333" stroke-miterlimit="10" stroke-linecap="round" stroke-linejoin="round"/>
<path d="M20.6849 9.92605C20.7194 4.91867 16.688 0.831443 11.6807 0.796982C6.67328 0.762521 2.58606 4.79387 2.55159 9.80125C2.51713 14.8086 6.54848 18.8959 11.5559 18.9303C16.5632 18.9648 20.6505 14.9334 20.6849 9.92605Z" stroke="#F44335" stroke-width="1.33333" stroke-miterlimit="10" stroke-linecap="round" stroke-linejoin="round"/>
<path d="M10.3818 18.8399L8.12844 24.5066L5.27511 21.2399L0.968445 21.6399L3.82178 14.4932" stroke="#F44335" stroke-width="1.33333" stroke-miterlimit="10" stroke-linecap="round" stroke-linejoin="round"/>
<path d="M12.8351 18.8399L15.1018 24.5066L17.9418 21.2399L22.2618 21.6399L19.3951 14.4932" stroke="#F44335" stroke-width="1.33333" stroke-miterlimit="10" stroke-linecap="round" stroke-linejoin="round"/>
</svg>
